<svg width="300" height="150" viewBox="0 0 300 150" fill="none" xmlns="http://www.w3.org/2000/svg">
<rect width="300" height="150" fill="#D9D9D9"/>
<path d="M98.1044 64.1818V86H94.152V64.1818H98.1044ZM102.214 86V69.6364H105.9V72.4169H106.092C106.433 71.4794 106.997 70.7479 107.786 70.2223C108.574 69.6896 109.515 69.4233 110.609 69.4233C111.717 69.4233 112.651 69.6932 113.411 70.233C114.178 70.7656 114.718 71.4936 115.03 72.4169H115.2C115.563 71.5078 116.173 70.7834 117.033 70.2436C117.899 69.6967 118.926 69.4233 120.112 69.4233C121.617 69.4233 122.846 69.8991 123.798 70.8509C124.749 71.8026 125.225 73.1911 125.225 75.0163V86H121.358V75.6129C121.358 74.5973 121.088 73.8551 120.548 73.3864C120.009 72.9105 119.348 72.6726 118.567 72.6726C117.637 72.6726 116.909 72.9638 116.383 73.5462C115.865 74.1214 115.605 74.8707 115.605 75.794V86H111.823V75.4531C111.823 74.608 111.568 73.9332 111.056 73.429C110.552 72.9247 109.892 72.6726 109.075 72.6726C108.521 72.6726 108.017 72.8146 107.562 73.0987C107.107 73.3757 106.745 73.7699 106.475 74.2812C106.205 74.7855 106.07 75.375 106.07 76.0497V86H102.214ZM133.847 86.3303C132.81 86.3303 131.876 86.1456 131.045 85.7763C130.221 85.3999 129.567 84.8459 129.085 84.1143C128.609 83.3828 128.371 82.4808 128.371 81.4084C128.371 80.4851 128.541 79.7216 128.882 79.1179C129.223 78.5142 129.688 78.0312 130.278 77.669C130.867 77.3068 131.531 77.0334 132.27 76.8487C133.016 76.657 133.786 76.5185 134.582 76.4332C135.54 76.3338 136.318 76.245 136.915 76.1669C137.511 76.0817 137.945 75.9538 138.214 75.7834C138.491 75.6058 138.63 75.3324 138.63 74.9631V74.8991C138.63 74.0966 138.392 73.4751 137.916 73.0348C137.44 72.5945 136.755 72.3743 135.86 72.3743C134.915 72.3743 134.166 72.5803 133.612 72.9922C133.065 73.4041 132.696 73.8906 132.504 74.4517L128.903 73.9403C129.188 72.946 129.656 72.1151 130.31 71.4474C130.963 70.7727 131.762 70.2685 132.707 69.9347C133.651 69.5938 134.695 69.4233 135.839 69.4233C136.627 69.4233 137.412 69.5156 138.193 69.7003C138.974 69.8849 139.688 70.1903 140.335 70.6165C140.981 71.0355 141.499 71.6072 141.89 72.3317C142.288 73.0561 142.487 73.9616 142.487 75.0483V86H138.779V83.7521H138.651C138.417 84.2067 138.087 84.6328 137.661 85.0305C137.241 85.4212 136.712 85.7372 136.073 85.9787C135.441 86.2131 134.699 86.3303 133.847 86.3303ZM134.848 83.4964C135.622 83.4964 136.293 83.3437 136.862 83.0384C137.43 82.7259 137.866 82.3139 138.172 81.8026C138.484 81.2912 138.641 80.7337 138.641 80.13V78.2017C138.52 78.3011 138.314 78.3935 138.023 78.4787C137.739 78.5639 137.419 78.6385 137.064 78.7024C136.709 78.7663 136.357 78.8232 136.009 78.8729C135.661 78.9226 135.359 78.9652 135.104 79.0007C134.528 79.0788 134.013 79.2067 133.559 79.3842C133.104 79.5618 132.746 79.8104 132.483 80.13C132.22 80.4425 132.089 80.8473 132.089 81.3445C132.089 82.0547 132.348 82.5909 132.866 82.9531C133.385 83.3153 134.045 83.4964 134.848 83.4964ZM153.481 92.4773C152.096 92.4773 150.906 92.2891 149.912 91.9126C148.918 91.5433 148.119 91.0462 147.515 90.4212C146.911 89.7962 146.492 89.1037 146.258 88.3438L149.731 87.5021C149.887 87.8217 150.114 88.1378 150.413 88.4503C150.711 88.7699 151.112 89.0327 151.616 89.2386C152.128 89.4517 152.771 89.5582 153.545 89.5582C154.638 89.5582 155.544 89.2919 156.261 88.7592C156.979 88.2337 157.337 87.3672 157.337 86.1598V83.0597H157.146C156.947 83.4574 156.656 83.8658 156.272 84.2848C155.896 84.7038 155.395 85.0554 154.77 85.3395C154.152 85.6236 153.374 85.7656 152.437 85.7656C151.18 85.7656 150.04 85.4709 149.017 84.8814C148.001 84.2848 147.192 83.397 146.588 82.218C145.991 81.032 145.693 79.5476 145.693 77.7649C145.693 75.968 145.991 74.4517 146.588 73.2159C147.192 71.973 148.005 71.032 149.028 70.3928C150.05 69.7464 151.19 69.4233 152.447 69.4233C153.406 69.4233 154.195 69.5866 154.812 69.9134C155.438 70.233 155.935 70.62 156.304 71.0746C156.673 71.522 156.954 71.9446 157.146 72.3423H157.359V69.6364H161.162V86.2663C161.162 87.6655 160.828 88.8232 160.161 89.7393C159.493 90.6555 158.58 91.3409 157.423 91.7955C156.265 92.25 154.951 92.4773 153.481 92.4773ZM153.513 82.7401C154.33 82.7401 155.026 82.5412 155.601 82.1435C156.176 81.7457 156.613 81.174 156.911 80.4283C157.21 79.6825 157.359 78.7876 157.359 77.7436C157.359 76.7138 157.21 75.8118 156.911 75.0376C156.62 74.2635 156.187 73.6634 155.612 73.2372C155.043 72.804 154.344 72.5874 153.513 72.5874C152.653 72.5874 151.936 72.8111 151.361 73.2585C150.786 73.706 150.352 74.3203 150.061 75.1016C149.77 75.8757 149.624 76.7564 149.624 77.7436C149.624 78.745 149.77 79.6222 150.061 80.375C150.359 81.1207 150.796 81.7031 151.371 82.1222C151.954 82.5341 152.668 82.7401 153.513 82.7401ZM172.359 86.3196C170.718 86.3196 169.301 85.9787 168.108 85.2969C166.922 84.608 166.009 83.6349 165.37 82.3778C164.731 81.1136 164.411 79.6257 164.411 77.9141C164.411 76.2308 164.731 74.7536 165.37 73.4822C166.016 72.2038 166.918 71.2095 168.076 70.4993C169.234 69.782 170.594 69.4233 172.156 69.4233C173.165 69.4233 174.116 69.5866 175.011 69.9134C175.913 70.233 176.709 70.7301 177.398 71.4048C178.094 72.0795 178.641 72.9389 179.038 73.983C179.436 75.0199 179.635 76.2557 179.635 77.6903V78.8729H166.222V76.2734H175.938C175.931 75.5348 175.771 74.8778 175.459 74.3026C175.146 73.7202 174.71 73.2621 174.148 72.9283C173.594 72.5945 172.948 72.4276 172.21 72.4276C171.421 72.4276 170.729 72.6193 170.132 73.0028C169.536 73.3793 169.07 73.8764 168.737 74.4943C168.41 75.1051 168.243 75.7763 168.236 76.5078V78.777C168.236 79.7287 168.41 80.5455 168.758 81.2273C169.106 81.902 169.592 82.4205 170.217 82.7827C170.842 83.1378 171.574 83.3153 172.412 83.3153C172.973 83.3153 173.481 83.2372 173.935 83.081C174.39 82.9176 174.784 82.6797 175.118 82.3672C175.452 82.0547 175.704 81.6676 175.874 81.206L179.475 81.6108C179.248 82.5625 178.815 83.3935 178.175 84.1037C177.543 84.8068 176.734 85.3537 175.746 85.7443C174.759 86.1278 173.63 86.3196 172.359 86.3196ZM182.898 86V69.6364H186.584V72.4169H186.775C187.116 71.4794 187.681 70.7479 188.469 70.2223C189.258 69.6896 190.199 69.4233 191.292 69.4233C192.4 69.4233 193.334 69.6932 194.094 70.233C194.861 70.7656 195.401 71.4936 195.714 72.4169H195.884C196.246 71.5078 196.857 70.7834 197.716 70.2436C198.583 69.6967 199.609 69.4233 200.795 69.4233C202.301 69.4233 203.53 69.8991 204.481 70.8509C205.433 71.8026 205.909 73.1911 205.909 75.0163V86H202.042V75.6129C202.042 74.5973 201.772 73.8551 201.232 73.3864C200.692 72.9105 200.032 72.6726 199.251 72.6726C198.32 72.6726 197.592 72.9638 197.067 73.5462C196.548 74.1214 196.289 74.8707 196.289 75.794V86H192.507V75.4531C192.507 74.608 192.251 73.9332 191.74 73.429C191.236 72.9247 190.575 72.6726 189.758 72.6726C189.204 72.6726 188.7 72.8146 188.246 73.0987C187.791 73.3757 187.429 73.7699 187.159 74.2812C186.889 74.7855 186.754 75.375 186.754 76.0497V86H182.898Z" fill="black"/>
</svg>
